<svg width="14" height="14" viewBox="0 0 14 14" fill="none" xmlns="http://www.w3.org/2000/svg">
<path fill-rule="evenodd" clip-rule="evenodd" d="M6.64195 0.70613C6.8526 0.542293 7.14757 0.542293 7.35821 0.70613L12.6082 4.78946C12.7503 4.89998 12.8334 5.06991 12.8334 5.24992V11.6666C12.8334 12.1307 12.649 12.5758 12.3209 12.904C11.9927 13.2322 11.5475 13.4166 11.0834 13.4166H2.91675C2.45262 13.4166 2.0075 13.2322 1.67931 12.904C1.35112 12.5758 1.16675 12.1307 1.16675 11.6666V5.24992C1.16675 5.06991 1.24986 4.89998 1.39195 4.78946L6.64195 0.70613ZM2.33341 5.53522V11.6666C2.33341 11.8213 2.39487 11.9697 2.50427 12.0791C2.61367 12.1885 2.76204 12.2499 2.91675 12.2499H11.0834C11.2381 12.2499 11.3865 12.1885 11.4959 12.0791C11.6053 11.9697 11.6667 11.8213 11.6667 11.6666V5.53522L7.00008 1.90559L2.33341 5.53522Z" fill="white"/>
<path fill-rule="evenodd" clip-rule="evenodd" d="M4.66675 6.99992C4.66675 6.67775 4.92792 6.41658 5.25008 6.41658H8.75008C9.07225 6.41658 9.33342 6.67775 9.33342 6.99992V12.8333C9.33342 13.1554 9.07225 13.4166 8.75008 13.4166C8.42792 13.4166 8.16675 13.1554 8.16675 12.8333V7.58325H5.83342V12.8333C5.83342 13.1554 5.57225 13.4166 5.25008 13.4166C4.92792 13.4166 4.66675 13.1554 4.66675 12.8333V6.99992Z" fill="white"/>
</svg>
