<svg width="14" height="14" viewBox="0 0 14 14" fill="none" xmlns="http://www.w3.org/2000/svg">
<path fill-rule="evenodd" clip-rule="evenodd" d="M2.60427 9.02102C3.15125 8.47404 3.89312 8.16675 4.66667 8.16675H9.33333C10.1069 8.16675 10.8487 8.47404 11.3957 9.02102C11.9427 9.568 12.25 10.3099 12.25 11.0834V12.2501C12.25 12.5722 11.9888 12.8334 11.6667 12.8334C11.3445 12.8334 11.0833 12.5722 11.0833 12.2501V11.0834C11.0833 10.6193 10.899 10.1742 10.5708 9.84598C10.2426 9.51779 9.79746 9.33342 9.33333 9.33342H4.66667C4.20254 9.33342 3.75742 9.51779 3.42923 9.84598C3.10104 10.1742 2.91667 10.6193 2.91667 11.0834V12.2501C2.91667 12.5722 2.6555 12.8334 2.33333 12.8334C2.01117 12.8334 1.75 12.5722 1.75 12.2501V11.0834C1.75 10.3099 2.05729 9.568 2.60427 9.02102Z" fill="white"/>
<path fill-rule="evenodd" clip-rule="evenodd" d="M6.99992 2.33341C6.03342 2.33341 5.24992 3.11692 5.24992 4.08341C5.24992 5.04991 6.03342 5.83341 6.99992 5.83341C7.96642 5.83341 8.74992 5.04991 8.74992 4.08341C8.74992 3.11692 7.96642 2.33341 6.99992 2.33341ZM4.08325 4.08341C4.08325 2.47258 5.38909 1.16675 6.99992 1.16675C8.61075 1.16675 9.91658 2.47258 9.91658 4.08341C9.91658 5.69425 8.61075 7.00008 6.99992 7.00008C5.38909 7.00008 4.08325 5.69425 4.08325 4.08341Z" fill="white"/>
</svg>
