<?xml version="1.0" encoding="utf-8"?><svg viewBox="0 0 70 49" xmlns="http://www.w3.org/2000/svg" xmlns:xlink="http://www.w3.org/1999/xlink"><style>:root>svg{display:none}:root>svg:target{display:block}</style><svg fill="none" viewBox="0 0 18 18" id="calendar" xmlns="http://www.w3.org/2000/svg"><path fill-rule="evenodd" clip-rule="evenodd" d="M3.75 3.75A.75.75 0 003 4.5V15c0 .414.336.75.75.75h10.5A.75.75 0 0015 15V4.5a.75.75 0 00-.75-.75H3.75zM1.5 4.5a2.25 2.25 0 012.25-2.25h10.5A2.25 2.25 0 0116.5 4.5V15a2.25 2.25 0 01-2.25 2.25H3.75A2.25 2.25 0 011.5 15V4.5z" fill="#333"/><path fill-rule="evenodd" clip-rule="evenodd" d="M12 .75a.75.75 0 01.75.75v3a.75.75 0 01-1.5 0v-3A.75.75 0 0112 .75zM6 .75a.75.75 0 01.75.75v3a.75.75 0 01-1.5 0v-3A.75.75 0 016 .75zM1.5 7.5a.75.75 0 01.75-.75h13.5a.75.75 0 010 1.5H2.25a.75.75 0 01-.75-.75z" fill="#333"/></svg><svg fill="none" viewBox="0 0 20 20" id="call-footer" xmlns="http://www.w3.org/2000/svg"><path d="M10 20a9.811 9.811 0 01-3.887-.791c-1.237-.527-2.301-1.237-3.193-2.129-.892-.892-1.602-1.956-2.129-3.193A9.81 9.81 0 010 10c0-1.354.264-2.65.791-3.887S2.028 3.812 2.92 2.92C3.812 2.028 4.876 1.318 6.113.79A9.81 9.81 0 0110 0a9.81 9.81 0 013.887.791c1.237.527 2.301 1.237 3.193 2.129.892.892 1.602 1.956 2.129 3.193A9.811 9.811 0 0120 10c0 1.354-.264 2.65-.791 3.887s-1.237 2.301-2.129 3.193c-.892.892-1.956 1.602-3.193 2.129A9.811 9.811 0 0110 20zm5-13.75c0-.339-.12-.632-.361-.879A1.192 1.192 0 0013.75 5h-7.5c-.339 0-.632.124-.879.371S5 5.911 5 6.25V7.5h2.227c.755-.833 1.68-1.25 2.773-1.25 1.094 0 2.018.417 2.773 1.25H15V6.25zM7.5 10c0 .69.244 1.28.732 1.768A2.409 2.409 0 0010 12.5c.69 0 1.28-.244 1.768-.732A2.409 2.409 0 0012.5 10c0-.69-.244-1.28-.732-1.768A2.409 2.409 0 0010 7.5c-.69 0-1.28.244-1.768.732A2.409 2.409 0 007.5 10zM15 8.75h-1.484c.156.43.234.846.234 1.25 0 1.042-.365 1.927-1.094 2.656-.729.73-1.614 1.094-2.656 1.094s-1.927-.365-2.656-1.094C6.614 11.927 6.25 11.042 6.25 10c0-.404.078-.82.234-1.25H5v5c0 .352.12.648.361.889.241.24.537.361.889.361h7.5c.352 0 .648-.12.889-.361.24-.241.361-.537.361-.889v-5z" fill="#BDBDBD"/></svg><svg fill="none" viewBox="0 0 11 20" id="facebook" xmlns="http://www.w3.org/2000/svg"><path d="M9.12 3.32H11V.14A26.111 26.111 0 008.26 0C5.54 0 3.68 1.66 3.68 4.7v2.62H.61v3.56h3.07V20h3.68v-9.12h3.06l.46-3.56H7.36V5.05c0-1.05.28-1.73 1.76-1.73z" fill="#F5EFDB"/></svg><svg fill="none" viewBox="0 0 20 20" id="facebook2" xmlns="http://www.w3.org/2000/svg"><path d="M10.001.002C4.479.002.002 4.479.002 10.001c0 4.99 3.656 9.126 8.437 9.879v-6.988h-2.54v-2.891h2.54V7.798c0-2.508 1.493-3.891 3.776-3.891 1.094 0 2.24.195 2.24.195v2.459h-1.264c-1.24 0-1.628.772-1.628 1.563v1.875h2.771l-.443 2.891h-2.328v6.988C16.344 19.129 20 14.992 20 10.001 20 4.479 15.523.002 10.001.002z" fill="#BDBDBD"/></svg><svg fill="none" viewBox="0 0 18 18" id="galochka" xmlns="http://www.w3.org/2000/svg"><path fill-rule="evenodd" clip-rule="evenodd" d="M.75 9a8.25 8.25 0 1116.5 0A8.25 8.25 0 01.75 9z" fill="#333"/><path fill-rule="evenodd" clip-rule="evenodd" d="M12.983 6.032a.75.75 0 010 1.06l-4.655 4.876a.75.75 0 01-1.061 0l-2.25-2.25a.75.75 0 011.06-1.06l1.72 1.719 4.125-4.345a.75.75 0 011.061 0z" fill="#fff"/></svg><svg fill="none" viewBox="0 0 14 20" id="gps" xmlns="http://www.w3.org/2000/svg"><path d="M7 0C3.13 0 0 3.13 0 7c0 4.17 4.42 9.92 6.24 12.11.4.48 1.13.48 1.53 0C9.58 16.92 14 11.17 14 7c0-3.87-3.13-7-7-7zm0 9.5a2.5 2.5 0 110-5 2.5 2.5 0 010 5z" fill="#BDBDBD"/></svg><svg fill="none" viewBox="0 0 14 14" id="gps2" xmlns="http://www.w3.org/2000/svg"><path fill-rule="evenodd" clip-rule="evenodd" d="M7 1.167a4.667 4.667 0 00-4.667 4.666c0 1.808 1.176 3.561 2.466 4.922A17.178 17.178 0 007 12.701a17.178 17.178 0 002.202-1.946c1.289-1.36 2.465-3.114 2.465-4.922A4.667 4.667 0 007 1.167zm0 12.25l-.324.485-.001-.001-.004-.003-.014-.009-.048-.033c-.041-.029-.101-.07-.176-.125a18.327 18.327 0 01-2.481-2.174c-1.336-1.41-2.785-3.448-2.785-5.724a5.833 5.833 0 0111.666 0c0 2.276-1.449 4.315-2.784 5.724a18.333 18.333 0 01-2.658 2.299l-.048.033-.013.01-.004.002h-.002L7 13.418zm0 0l.324.485a.584.584 0 01-.648 0L7 13.417z" fill="#fff"/><path fill-rule="evenodd" clip-rule="evenodd" d="M7 4.667A1.167 1.167 0 107 7a1.167 1.167 0 000-2.333zM4.667 5.833a2.333 2.333 0 114.666 0 2.333 2.333 0 01-4.666 0z" fill="#fff"/></svg><svg fill="none" viewBox="0 0 14 14" id="home" xmlns="http://www.w3.org/2000/svg"><path fill-rule="evenodd" clip-rule="evenodd" d="M6.642.706a.583.583 0 01.716 0l5.25 4.083c.142.111.225.28.225.46v6.418a1.75 1.75 0 01-1.75 1.75H2.917a1.75 1.75 0 01-1.75-1.75V5.25c0-.18.083-.35.225-.46L6.642.705zm-4.309 4.83v6.13a.583.583 0 00.584.584h8.166a.583.583 0 00.584-.583V5.535L7 1.905l-4.667 3.63z" fill="#fff"/><path fill-rule="evenodd" clip-rule="evenodd" d="M4.667 7c0-.322.26-.583.583-.583h3.5c.322 0 .583.26.583.583v5.833a.583.583 0 01-1.166 0v-5.25H5.833v5.25a.583.583 0 01-1.166 0V7z" fill="#fff"/></svg><svg fill="none" viewBox="0 0 20 20" id="instagram" xmlns="http://www.w3.org/2000/svg"><path d="M15.34 3.46a1.2 1.2 0 100 2.4 1.2 1.2 0 000-2.4zm4.6 2.42a7.588 7.588 0 00-.46-2.43 4.94 4.94 0 00-1.16-1.77A4.7 4.7 0 0016.55.53a7.3 7.3 0 00-2.43-.47C13.06 0 12.72 0 10 0S6.94 0 5.88.06a7.3 7.3 0 00-2.43.47 4.78 4.78 0 00-1.77 1.15A4.7 4.7 0 00.53 3.45a7.3 7.3 0 00-.47 2.43C0 6.94 0 7.28 0 10s0 3.06.06 4.12a7.3 7.3 0 00.47 2.43 4.7 4.7 0 001.15 1.77 4.78 4.78 0 001.77 1.15 7.3 7.3 0 002.43.47C6.94 20 7.28 20 10 20s3.06 0 4.12-.06a7.3 7.3 0 002.43-.47 4.7 4.7 0 001.77-1.15 4.85 4.85 0 001.16-1.77c.285-.78.44-1.6.46-2.43 0-1.06.06-1.4.06-4.12s0-3.06-.06-4.12zM18.14 14a5.61 5.61 0 01-.34 1.86 3.06 3.06 0 01-.75 1.15c-.324.33-.717.586-1.15.75a5.61 5.61 0 01-1.86.34c-1 .05-1.37.06-4 .06s-3 0-4-.06a5.73 5.73 0 01-1.94-.3 3.27 3.27 0 01-1.1-.75 3 3 0 01-.74-1.15 5.54 5.54 0 01-.4-1.9c0-1-.06-1.37-.06-4s0-3 .06-4a5.54 5.54 0 01.35-1.9A3 3 0 013 3a3.14 3.14 0 011.1-.8A5.73 5.73 0 016 1.86c1 0 1.37-.06 4-.06s3 0 4 .06a5.61 5.61 0 011.86.34 3.06 3.06 0 011.19.8c.328.307.584.683.75 1.1.222.609.337 1.252.34 1.9.05 1 .06 1.37.06 4s-.01 3-.06 4zM10 4.87A5.13 5.13 0 1015.14 10 5.12 5.12 0 0010 4.87zm0 8.46a3.33 3.33 0 110-6.66 3.33 3.33 0 010 6.66z" fill="#F5EFDB"/></svg><svg fill="none" viewBox="0 0 18 14" id="mail" xmlns="http://www.w3.org/2000/svg"><path d="M15.667.333H2.333C1.417.333.675 1.083.675 2L.667 12c0 .917.75 1.667 1.666 1.667h13.334c.916 0 1.666-.75 1.666-1.667V2c0-.917-.75-1.667-1.666-1.667zm-.334 3.542L9.442 7.56a.843.843 0 01-.884 0L2.667 3.875a.708.708 0 11.75-1.2L9 6.167l5.583-3.492a.708.708 0 11.75 1.2z" fill="#BDBDBD"/></svg><svg fill="none" viewBox="0 0 23 23" id="phone-call" xmlns="http://www.w3.org/2000/svg"><path d="M19.167 10.54h1.916c0-4.916-3.711-8.623-8.634-8.623v1.916c3.893 0 6.718 2.82 6.718 6.707z" fill="#BDBDBD"/><path d="M12.458 7.667c2.016 0 2.875.86 2.875 2.875h1.917c0-3.09-1.701-4.792-4.792-4.792v1.917zm3.28 5.216a.96.96 0 00-1.333.041l-2.294 2.359c-.552-.106-1.661-.452-2.804-1.591-1.142-1.143-1.488-2.256-1.59-2.804l2.356-2.294a.959.959 0 00.041-1.334l-3.54-3.893a.958.958 0 00-1.334-.084L3.16 5.067a.958.958 0 00-.277.622c-.015.24-.289 5.915 4.112 10.317 3.839 3.838 8.648 4.12 9.972 4.12.194 0 .313-.007.344-.009a.95.95 0 00.621-.278l1.783-2.08a.958.958 0 00-.083-1.334l-3.894-3.542z" fill="#BDBDBD"/></svg><svg fill="none" viewBox="0 0 16 16" id="search1" xmlns="http://www.w3.org/2000/svg"><path fill-rule="evenodd" clip-rule="evenodd" d="M7.333 2.667a4.667 4.667 0 100 9.333 4.667 4.667 0 000-9.333zm-6 4.666a6 6 0 1112 0 6 6 0 01-12 0z" fill="#fff"/><path fill-rule="evenodd" clip-rule="evenodd" d="M10.629 10.629c.26-.26.682-.26.942 0l2.9 2.9a.667.667 0 11-.942.942l-2.9-2.9a.667.667 0 010-.942z" fill="#fff"/></svg><svg fill="none" viewBox="0 0 14 9" id="select-arrow" xmlns="http://www.w3.org/2000/svg"><path d="M7.576 8.488l5.433-5.922a1.054 1.054 0 000-1.455c-.388-.415-.97-.415-1.358 0L6.8 6.202l-4.85-5.09C1.56.695.98.695.59 1.111a.976.976 0 00-.291.727c0 .311.097.52.291.727l5.433 5.922c.485.416 1.067.416 1.552 0-.097 0-.097 0 0 0z" fill="#AAA"/></svg><svg fill="none" viewBox="0 0 24 24" id="shopping" xmlns="http://www.w3.org/2000/svg"><g clip-path="url(#nclip0_11_228)" fill-rule="evenodd" clip-rule="evenodd" fill="#000"><path d="M7 21a2 2 0 114 0 2 2 0 01-4 0zM18 21a2 2 0 114 0 2 2 0 01-4 0zM0 1a1 1 0 011-1h4a1 1 0 01.98.804L6.82 5H23a1 1 0 01.982 1.187l-1.601 8.398A3 3 0 0119.39 17H9.69a3 3 0 01-2.99-2.414L5.03 6.239a.994.994 0 01-.017-.084L4.18 2H1a1 1 0 01-1-1zm7.22 6l1.44 7.195a1 1 0 001 .805h9.76a1 1 0 00.998-.802L21.792 7H7.221z"/></g><defs><clipPath id="nclip0_11_228"><path fill="#fff" d="M0 0h24v24H0z"/></clipPath></defs></svg><svg fill="none" viewBox="0 0 70 49" id="skobki" xmlns="http://www.w3.org/2000/svg"><path opacity=".4" d="M65 .795H50L40 19.831v28.554h30V19.83H55L65 .795zm-40 0H10L0 19.831v28.554h30V19.83H15L25 .795z" fill="#F2F2F2"/></svg><svg fill="none" viewBox="0 0 70 49" id="skobki2" xmlns="http://www.w3.org/2000/svg"><path opacity=".4" d="M5 48.289h15l10-19.036V.699H0v28.554h15L5 48.289zm40 0h15l10-19.036V.699H40v28.554h15L45 48.289z" fill="#F2F2F2"/></svg><svg fill="none" viewBox="0 0 6 6" id="star" xmlns="http://www.w3.org/2000/svg"><path d="M1.333 4L0 2l2-.333L3 0l1 1.667 2 .666-1.333 1.334L5 6 3 5 1 6l.333-2z" fill="#F2994A"/></svg><svg fill="none" viewBox="0 0 10 18" id="strelka" xmlns="http://www.w3.org/2000/svg"><path fill-rule="evenodd" clip-rule="evenodd" d="M9.634.616a1.25 1.25 0 010 1.768L3.018 9l6.616 6.616a1.25 1.25 0 01-1.768 1.768l-7.5-7.5a1.25 1.25 0 010-1.768l7.5-7.5a1.25 1.25 0 011.768 0z" fill="#828282"/></svg><svg fill="none" viewBox="0 0 10 18" id="strelrf2" xmlns="http://www.w3.org/2000/svg"><path fill-rule="evenodd" clip-rule="evenodd" d="M.366.616a1.25 1.25 0 011.768 0l7.5 7.5a1.25 1.25 0 010 1.768l-7.5 7.5a1.25 1.25 0 01-1.768-1.768L6.982 9 .366 2.384a1.25 1.25 0 010-1.768z" fill="#828282"/></svg><svg fill="none" viewBox="0 0 23 20" id="twitter" xmlns="http://www.w3.org/2000/svg"><path d="M22.991 1.95a1 1 0 00-1.51-.86 7.48 7.48 0 01-1.873.794A5.152 5.152 0 0016.233.642a5.233 5.233 0 00-5.223 5.063 11.032 11.032 0 01-6.814-3.924 1.011 1.011 0 00-.857-.365.998.998 0 00-.785.5 5.275 5.275 0 00-.242 4.769l-.002.002a1.041 1.041 0 00-.496.888c-.001.147.007.294.027.44a5.185 5.185 0 001.568 3.312.999.999 0 00-.066.77 5.204 5.204 0 002.362 2.921 7.465 7.465 0 01-3.59.449A1 1 0 001.45 17.3a12.942 12.942 0 007.01 2.061 12.788 12.788 0 0012.465-9.363c.353-1.183.533-2.412.535-3.646l-.001-.2a5.77 5.77 0 001.532-4.202zm-3.306 3.212a.995.995 0 00-.234.702c.01.165.009.331.009.488a10.826 10.826 0 01-.454 3.08 10.685 10.685 0 01-10.546 7.93c-.86 0-1.715-.101-2.55-.301a9.48 9.48 0 002.942-1.564 1.001 1.001 0 00-.602-1.786 3.208 3.208 0 01-2.214-.935c.15-.028.298-.063.445-.105a1 1 0 00-.08-1.944 3.197 3.197 0 01-2.25-1.725c.181.025.363.04.545.046a1.021 1.021 0 00.984-.696 1 1 0 00-.4-1.137A3.196 3.196 0 013.86 4.344a13.014 13.014 0 008.21 3.48 1.02 1.02 0 00.817-.36 1 1 0 00.206-.867 3.164 3.164 0 01-.087-.729 3.23 3.23 0 014.506-2.962c.403.176.766.433 1.065.756a.993.993 0 00.921.298 9.27 9.27 0 001.212-.322 6.679 6.679 0 01-1.026 1.524z" fill="#F5EFDB"/></svg><svg fill="none" viewBox="0 0 14 14" id="user" xmlns="http://www.w3.org/2000/svg"><path fill-rule="evenodd" clip-rule="evenodd" d="M2.604 9.021a2.917 2.917 0 012.063-.854h4.666a2.917 2.917 0 012.917 2.916v1.167a.583.583 0 01-1.167 0v-1.167a1.75 1.75 0 00-1.75-1.75H4.667a1.75 1.75 0 00-1.75 1.75v1.167a.583.583 0 01-1.167 0v-1.167c0-.773.307-1.515.854-2.062zM7 2.333a1.75 1.75 0 100 3.5 1.75 1.75 0 000-3.5zm-2.917 1.75a2.917 2.917 0 115.834 0 2.917 2.917 0 01-5.834 0z" fill="#fff"/></svg><svg fill="none" viewBox="0 0 21 21" id="youtube" xmlns="http://www.w3.org/2000/svg"><path d="M12.183 10.325l-2.358-1.1c-.206-.096-.375.01-.375.239v2.072c0 .228.169.335.375.24l2.357-1.1c.207-.097.207-.255.001-.351zM10.5.42C4.933.42.42 4.933.42 10.5S4.933 20.58 10.5 20.58s10.08-4.513 10.08-10.08S16.067.42 10.5.42zm0 14.175c-5.16 0-5.25-.465-5.25-4.095s.09-4.095 5.25-4.095 5.25.465 5.25 4.095-.09 4.095-5.25 4.095z" fill="#BDBDBD"/></svg></svg>